<svg width="213" height="131" viewBox="0 0 213 131" fill="none" xmlns="http://www.w3.org/2000/svg">
<rect width="213" height="131" rx="15" fill="#D3EF37"/>
<path d="M171.074 24.25H148.768C146.721 24.25 145.387 26.3492 146.285 28.1633L184.597 105.224C185.614 107.259 188.559 107.259 189.576 105.224L200.723 82.781C201.092 82.0295 201.092 81.1483 200.723 80.3968L173.57 25.779C173.108 24.8461 172.143 24.25 171.087 24.25H171.074Z" fill="black" fill-opacity="0.1"/>
<path d="M128.779 24.25H107.402C105.441 24.25 104.162 26.3492 105.023 28.1633L141.739 105.224C142.714 107.259 145.536 107.259 146.511 105.224L157.193 82.781C157.547 82.0295 157.547 81.1483 157.193 80.3968L131.171 25.779C130.728 24.8461 129.804 24.25 128.792 24.25H128.779Z" fill="black" fill-opacity="0.1"/>
<path d="M123.083 67.8046H86.7839C84.8174 67.8046 83.5359 69.9015 84.3987 71.7008L100.423 105.226C101.4 107.258 104.229 107.258 105.206 105.226L123.083 67.7917V67.8046Z" fill="black" fill-opacity="0.1"/>
</svg>
