<svg width="42" height="42" viewBox="0 0 42 42" fill="none" xmlns="http://www.w3.org/2000/svg">
<path d="M33.25 0H8.75C3.91751 0 0 3.91751 0 8.75V33.25C0 38.0825 3.91751 42 8.75 42H33.25C38.0825 42 42 38.0825 42 33.25V8.75C42 3.91751 38.0825 0 33.25 0Z" fill="#C3E11D"/>
<path d="M28.7807 9.8418H22.8692C22.3267 9.8418 21.9732 10.4088 22.2112 10.8988L32.3647 31.7133C32.6342 32.2628 33.4147 32.2628 33.6842 31.7133L36.6382 25.6513C36.7362 25.4483 36.7362 25.2103 36.6382 25.0073L29.4422 10.2548C29.3197 10.0028 29.0642 9.8418 28.7842 9.8418H28.7807Z" fill="#B3D5FF"/>
<path d="M17.3247 9.8418H11.4132C10.8707 9.8418 10.5172 10.4088 10.7552 10.8988L20.9087 31.7133C21.1782 32.2628 21.9587 32.2628 22.2282 31.7133L25.1822 25.6513C25.2802 25.4483 25.2802 25.2103 25.1822 25.0073L17.9862 10.2548C17.8637 10.0028 17.6082 9.8418 17.3282 9.8418H17.3247Z" fill="#B3D5FF"/>
<path d="M15.9989 21.6295H5.98544C5.44294 21.6295 5.08944 22.1965 5.32744 22.683L9.74794 31.748C10.0174 32.2975 10.7979 32.2975 11.0674 31.748L15.9989 21.626V21.6295Z" fill="#B3D5FF"/>
<path d="M28.5288 10H22.6173C22.0748 10 21.7213 10.567 21.9593 11.057L32.1128 31.8715C32.3823 32.421 33.1628 32.421 33.4323 31.8715L36.3863 25.8095C36.4843 25.6065 36.4843 25.3685 36.3863 25.1655L29.1903 10.413C29.0678 10.161 28.8123 10 28.5323 10H28.5288Z" fill="#0B1444"/>
<path d="M17.0727 10H11.1612C10.6187 10 10.2652 10.567 10.5032 11.057L20.6567 31.8715C20.9262 32.421 21.7067 32.421 21.9762 31.8715L24.9302 25.8095C25.0282 25.6065 25.0282 25.3685 24.9302 25.1655L17.7342 10.413C17.6117 10.161 17.3562 10 17.0762 10H17.0727Z" fill="#0B1444"/>
<path d="M15.747 21.7877H5.73349C5.19099 21.7877 4.83749 22.3547 5.07549 22.8412L9.49599 31.9062C9.76549 32.4557 10.546 32.4557 10.8155 31.9062L15.747 21.7842V21.7877Z" fill="#0B1444"/>
</svg>
