<svg width="39" height="32" viewBox="0 0 39 32" fill="none" xmlns="http://www.w3.org/2000/svg">
<path d="M36.5 7.50011V10.5001L33.5 31.506H1.5C0.947715 31.506 0.5 31.0582 0.5 30.506V3.00011C0.5 2.20446 0.81607 1.4414 1.37868 0.878787C1.94129 0.316178 2.70435 0.000107217 3.5 0.000107217H13.4938C14.1438 -0.00545649 14.7771 0.205656 15.2938 0.600107L20.5062 4.50011H33.5C34.2957 4.50011 35.0587 4.81618 35.6213 5.37879C36.1839 5.9414 36.5 6.70446 36.5 7.50011Z" fill="#CFCFCF"/>
<path d="M3.3905 5.37597C3.45306 4.87554 3.87846 4.5 4.38278 4.5H36.8672C37.4687 4.5 37.9341 5.02718 37.8595 5.62403L35.1095 27.624C35.0469 28.1245 34.6215 28.5 34.1172 28.5H1.63278C1.03128 28.5 0.565898 27.9728 0.640504 27.376L3.3905 5.37597Z" fill="white"/>
<path d="M37.2848 9.32905C37.7081 9.54396 38.0751 9.8551 38.3564 10.2375C38.6328 10.6269 38.8141 11.0757 38.8857 11.5479C38.9574 12.02 38.9174 12.5024 38.7689 12.9563L36.4252 30.4687C36.3265 30.7688 36.1356 31.03 35.8797 31.2152C35.6238 31.4003 35.316 31.5 35.0002 31.5H2.0002C1.75579 31.5012 1.51489 31.4419 1.29897 31.3274C1.08305 31.2129 0.898816 31.0467 0.762695 30.8437L3.2377 13.8938C3.45187 13.3327 3.8325 12.8506 4.32851 12.5121C4.82453 12.1736 5.41221 11.9949 6.0127 12H15.0502L18.7814 9.50625C19.2753 9.17599 19.8561 8.99979 20.4502 9H35.9189C36.3937 9.00144 36.8615 9.11414 37.2848 9.32905Z" fill="#8B8B8B"/>
</svg>
