<svg width="595" height="620" viewBox="0 0 595 620" fill="none" xmlns="http://www.w3.org/2000/svg">
<g opacity="0.4">
<path d="M632.708 0H468.485C453.415 0 443.594 15.7514 450.206 29.3637L732.273 607.596C739.76 622.861 761.442 622.861 768.929 607.596L850.992 439.192C853.714 433.552 853.714 426.941 850.992 421.301L651.085 11.4732C647.682 4.4726 640.584 0 632.806 0H632.708Z" fill="white"/>
<path d="M314.321 0H150.098C135.027 0 125.207 15.7514 131.819 29.3637L413.886 607.596C421.372 622.861 443.055 622.861 450.542 607.596L532.605 439.192C535.327 433.552 535.327 426.941 532.605 421.301L332.698 11.4732C329.295 4.4726 322.197 0 314.418 0H314.321Z" fill="white"/>
<path d="M277.554 327.458H-0.623413C-15.6942 327.458 -25.5145 343.209 -18.9028 356.724L103.9 608.552C111.387 623.817 133.069 623.817 140.556 608.552L277.554 327.36V327.458Z" fill="white"/>
</g>
</svg>
