<svg width="68" height="68" viewBox="0 0 68 68" fill="none" xmlns="http://www.w3.org/2000/svg">
<rect width="68" height="68" rx="5" fill="#C3E11D"/>
<path d="M46.6028 15.9375H37.0318C36.1535 15.9375 35.5811 16.8555 35.9665 17.6488L52.4055 51.3485C52.8418 52.2382 54.1055 52.2382 54.5418 51.3485L59.3245 41.5338C59.4831 41.2052 59.4831 40.8198 59.3245 40.4912L47.6738 16.6062C47.4755 16.1982 47.0618 15.9375 46.6085 15.9375H46.6028Z" fill="#00224C"/>
<path d="M28.0393 15.9375H18.4683C17.59 15.9375 17.0177 16.8555 17.403 17.6488L33.842 51.3485C34.2783 52.2382 35.542 52.2382 35.9783 51.3485L40.761 41.5338C40.9196 41.2052 40.9196 40.8198 40.761 40.4912L29.1103 16.6062C28.912 16.1982 28.4983 15.9375 28.045 15.9375H28.0393Z" fill="#00224C"/>
<path d="M25.8999 35.0223H9.68756C8.80922 35.0223 8.23689 35.9403 8.62222 36.7279L15.7792 51.4046C16.2156 52.2943 17.4792 52.2943 17.9156 51.4046L25.8999 35.0166V35.0223Z" fill="#00224C"/>
</svg>
