<svg width="116" height="116" viewBox="0 0 116 116" fill="none" xmlns="http://www.w3.org/2000/svg">
<path d="M79.304 27.4512H63.1177C61.6323 27.4512 60.6644 29.0037 61.3161 30.3453L89.1173 87.3374C89.8552 88.842 91.9923 88.842 92.7302 87.3374L100.819 70.7391C101.087 70.1832 101.087 69.5316 100.819 68.9757L81.1152 28.582C80.7798 27.892 80.0802 27.4512 79.3136 27.4512H79.304Z" fill="#C3E11D"/>
<path d="M47.9368 27.4512H31.7506C30.2651 27.4512 29.2972 29.0037 29.9489 30.3453L57.7501 87.3374C58.4881 88.842 60.6251 88.842 61.363 87.3374L69.4514 70.7391C69.7197 70.1832 69.7197 69.5316 69.4514 68.9757L49.7481 28.582C49.4126 27.892 48.7131 27.4512 47.9464 27.4512H47.9368Z" fill="#C3E11D"/>
<path d="M44.3032 59.7225H16.8853C15.3999 59.7225 14.432 61.275 15.0837 62.6071L27.1874 87.4279C27.9253 88.9325 30.0624 88.9325 30.8003 87.4279L44.3032 59.7129V59.7225Z" fill="#C3E11D"/>
</svg>
