<svg width="38" height="38" viewBox="0 0 38 38" fill="none" xmlns="http://www.w3.org/2000/svg">
<path d="M35.2875 26.125H33.45V20.125C33.4495 19.5285 33.2557 18.9566 32.9112 18.5347C32.5667 18.1129 32.0997 17.8757 31.6125 17.875H19.975V11.875H22.425C22.9121 11.8743 23.3792 11.637 23.7236 11.2152C24.0681 10.7934 24.2619 10.2215 24.2625 9.625V2.875C24.2619 2.27849 24.0681 1.70663 23.7236 1.28483C23.3792 0.863036 22.9121 0.625744 22.425 0.625H15.075C14.5879 0.625744 14.1208 0.863036 13.7764 1.28483C13.4319 1.70663 13.2381 2.27849 13.2375 2.875V9.625C13.2381 10.2215 13.4319 10.7934 13.7764 11.2152C14.1208 11.637 14.5879 11.8743 15.075 11.875H17.525V17.875H5.8875C5.40033 17.8757 4.93328 18.1129 4.5888 18.5347C4.24432 18.9566 4.05055 19.5285 4.05 20.125V26.125H2.2125C1.72535 26.1257 1.25833 26.363 0.913863 26.7848C0.569396 27.2066 0.375608 27.7785 0.375 28.375V35.125C0.375608 35.7215 0.569396 36.2934 0.913863 36.7152C1.25833 37.137 1.72535 37.3743 2.2125 37.375H8.3375C8.82465 37.3743 9.29167 37.137 9.63614 36.7152C9.9806 36.2934 10.1744 35.7215 10.175 35.125V28.375C10.1744 27.7785 9.9806 27.2066 9.63614 26.7848C9.29167 26.363 8.82465 26.1257 8.3375 26.125H6.5V20.875H17.525V26.125H15.6875C15.2004 26.1257 14.7333 26.363 14.3889 26.7848C14.0444 27.2066 13.8506 27.7785 13.85 28.375V35.125C13.8506 35.7215 14.0444 36.2934 14.3889 36.7152C14.7333 37.137 15.2004 37.3743 15.6875 37.375H21.8125C22.2996 37.3743 22.7667 37.137 23.1111 36.7152C23.4556 36.2934 23.6494 35.7215 23.65 35.125V28.375C23.6494 27.7785 23.4556 27.2066 23.1111 26.7848C22.7667 26.363 22.2996 26.1257 21.8125 26.125H19.975V20.875H31V26.125H29.1625C28.6754 26.1257 28.2083 26.363 27.8639 26.7848C27.5194 27.2066 27.3256 27.7785 27.325 28.375V35.125C27.3256 35.7215 27.5194 36.2934 27.8639 36.7152C28.2083 37.137 28.6754 37.3743 29.1625 37.375H35.2875C35.7747 37.3743 36.2417 37.137 36.5861 36.7152C36.9306 36.2934 37.1244 35.7215 37.125 35.125V28.375C37.1244 27.7785 36.9306 27.2066 36.5861 26.7848C36.2417 26.363 35.7747 26.1257 35.2875 26.125ZM15.6875 3.625H21.8125V8.875H15.6875V3.625ZM7.725 29.125V34.375H2.825V29.125H7.725ZM21.2 29.125V34.375H16.3V29.125H21.2ZM34.675 34.375H29.775V29.125H34.675V34.375Z" fill="#292D32"/>
</svg>
