<svg width="45" height="42" viewBox="0 0 45 42" fill="none" xmlns="http://www.w3.org/2000/svg">
<path d="M22.2698 39.8126C20.9952 39.8126 19.7023 39.34 18.7372 38.4125L15.6234 35.4551C14.8404 34.7201 13.8206 34.3175 12.7281 34.3175H11.3442C7.57481 34.3175 4.51562 31.3951 4.51562 27.8076V8.71503C4.51562 5.12753 7.57481 2.20508 11.3442 2.20508H33.1955C36.9649 2.20508 40.0241 5.12753 40.0241 8.71503V27.8076C40.0241 31.3951 36.9649 34.3175 33.1955 34.3175H31.8116C30.719 34.3175 29.6811 34.7201 28.9163 35.4551L25.8025 38.4125C24.8374 39.34 23.5445 39.8126 22.2698 39.8126ZM11.3442 4.81256C9.0862 4.81256 7.24704 6.56251 7.24704 8.69751V27.7901C7.24704 29.9426 9.0862 31.675 11.3442 31.675H12.7281C14.549 31.675 16.2607 32.3575 17.5536 33.5825L20.6674 36.5401C21.5597 37.3801 22.9982 37.3801 23.8905 36.5401L27.0043 33.5825C28.2972 32.3575 30.0089 31.675 31.8298 31.675H33.1955C35.4535 31.675 37.2926 29.9251 37.2926 27.7901V8.69751C37.2926 6.54501 35.4535 4.81256 33.1955 4.81256H11.3442Z" fill="#292D32"/>
<path d="M19.32 25.3923H14.4398C13.6386 25.3923 12.892 25.0247 12.4186 24.3947C11.9633 23.7997 11.8541 23.0648 12.0726 22.3648C12.7099 20.4923 14.2759 19.4772 15.6598 18.5672C17.1166 17.6222 17.936 17.0273 17.936 16.0123C17.936 15.1023 17.1712 14.3672 16.2243 14.3672C15.2774 14.3672 14.5127 15.1023 14.5127 16.0123C14.5127 16.7298 13.8935 17.3248 13.147 17.3248C12.4004 17.3248 11.7812 16.7298 11.7812 16.0123C11.7812 13.6673 13.7661 11.7422 16.2243 11.7422C18.6826 11.7422 20.6674 13.6498 20.6674 16.0123C20.6674 18.4798 18.7373 19.7397 17.1895 20.7547C16.2244 21.3847 15.3139 21.9798 14.8586 22.7673H19.3017C20.0483 22.7673 20.6674 23.3623 20.6674 24.0798C20.6674 24.7973 20.0666 25.3923 19.32 25.3923Z" fill="#292D32"/>
<path d="M29.6254 25.3926C28.8788 25.3926 28.2597 24.7976 28.2597 24.0801V22.8725H24.6906C24.6906 22.8725 24.6906 22.8725 24.6724 22.8725C23.7802 22.8725 22.9607 22.4177 22.5055 21.6827C22.0503 20.9302 22.0503 20.0026 22.5055 19.2676C23.7437 17.2201 25.1823 14.8926 26.4934 12.8626C27.0761 11.9701 28.1868 11.5677 29.2248 11.8477C30.2627 12.1452 30.9911 13.0552 30.9729 14.1052V20.2651H31.3735C32.1201 20.2651 32.7392 20.8601 32.7392 21.5776C32.7392 22.2951 32.1201 22.8901 31.3735 22.8901H30.9911V24.0977C30.9911 24.8152 30.3902 25.3926 29.6254 25.3926ZM28.2597 15.1202C27.1853 16.8002 26.0745 18.6025 25.073 20.2475H28.2597V15.1202Z" fill="#292D32"/>
</svg>
