<svg width="45" height="42" viewBox="0 0 45 42" fill="none" xmlns="http://www.w3.org/2000/svg">
<path d="M22.27 29.75V33.915C22.27 37.1875 20.9043 38.5 17.4809 38.5H8.83143C5.42626 38.5 4.06055 37.1875 4.06055 33.915V25.6025C4.06055 22.3125 5.42626 21 8.83143 21H13.1653V25.1475C13.1653 28.4375 14.531 29.75 17.9362 29.75H22.27Z" stroke="#00316E" stroke-width="2.5" stroke-linecap="round" stroke-linejoin="round"/>
<path d="M31.3735 21V25.1475C31.3735 28.4375 30.0078 29.75 26.5844 29.75H17.9349C14.5298 29.75 13.1641 28.4375 13.1641 25.1475V16.835C13.1641 13.5625 14.5298 12.25 17.9349 12.25H22.2688V16.3975C22.2688 19.6875 23.6345 21 27.0397 21H31.3735Z" stroke="#00316E" stroke-width="2.5" stroke-linecap="round" stroke-linejoin="round"/>
<path d="M40.479 8.085V16.3975C40.479 19.6875 39.1133 21 35.6899 21H27.0404C23.6352 21 22.2695 19.6875 22.2695 16.3975V8.085C22.2695 4.8125 23.6352 3.5 27.0404 3.5H35.6899C39.1133 3.5 40.479 4.8125 40.479 8.085Z" stroke="#00316E" stroke-width="2.5" stroke-linecap="round" stroke-linejoin="round"/>
</svg>
