<svg width="45" height="42" viewBox="0 0 45 42" fill="none" xmlns="http://www.w3.org/2000/svg">
<path d="M28.8473 21.455C34.0065 21.455 38.1888 17.4356 38.1888 12.4775C38.1888 7.51937 34.0065 3.5 28.8473 3.5C23.6882 3.5 19.5059 7.51937 19.5059 12.4775C19.5059 17.4356 23.6882 21.455 28.8473 21.455Z" stroke="#292D32" stroke-width="2.5" stroke-miterlimit="10"/>
<path d="M12.0401 34.0202C15.1376 34.0202 17.6487 31.6071 17.6487 28.6302C17.6487 25.6534 15.1376 23.2402 12.0401 23.2402C8.94263 23.2402 6.43164 25.6534 6.43164 28.6302C6.43164 31.6071 8.94263 34.0202 12.0401 34.0202Z" stroke="#292D32" stroke-width="2.5" stroke-miterlimit="10"/>
<path d="M30.7222 38.4991C33.2967 38.4991 35.3838 36.4933 35.3838 34.0191C35.3838 31.5448 33.2967 29.5391 30.7222 29.5391C28.1476 29.5391 26.0605 31.5448 26.0605 34.0191C26.0605 36.4933 28.1476 38.4991 30.7222 38.4991Z" stroke="#292D32" stroke-width="2.5" stroke-miterlimit="10"/>
</svg>
