<svg width="55" height="39" viewBox="0 0 55 39" fill="none" xmlns="http://www.w3.org/2000/svg">
<path d="M41.0223 0.109375H30.7475C29.8046 0.109375 29.1902 1.09487 29.6039 1.94654L47.2516 38.1241C47.72 39.0792 49.0766 39.0792 49.545 38.1241L54.6794 27.5878C54.8497 27.2349 54.8497 26.8213 54.6794 26.4684L42.172 0.827207C41.9591 0.389207 41.515 0.109375 41.0284 0.109375H41.0223Z" fill="#00224C"/>
<path d="M21.1121 0.109375H10.8374C9.89446 0.109375 9.28004 1.09487 9.69371 1.94654L27.3415 38.1241C27.8099 39.0792 29.1665 39.0792 29.6349 38.1241L34.7692 27.5878C34.9395 27.2349 34.9395 26.8213 34.7692 26.4684L22.2619 0.827207C22.049 0.389207 21.6049 0.109375 21.1182 0.109375H21.1121Z" fill="#00224C"/>
<path d="M18.8043 20.594H1.39988C0.456962 20.594 -0.157455 21.5795 0.256211 22.4251L7.93946 38.1809C8.40788 39.136 9.76446 39.136 10.2329 38.1809L18.8043 20.5879V20.594Z" fill="#00224C"/>
</svg>
