<svg width="1322" height="716" viewBox="0 0 1322 716" fill="none" xmlns="http://www.w3.org/2000/svg">
<path d="M1284 5L1286.39 0H1280.61L1283 5H1284ZM3.5 64.5L5.88675 59.5H0.113249L2.5 64.5H3.5ZM1283 4.5V106.25H1284V4.5H1283ZM1320.5 143.75V476.5H1321.5V143.75H1320.5ZM1260 537H1011.5V538H1260V537ZM950 598.5V654.5H951V598.5H950ZM889.5 715H599V716H889.5V715ZM490 606H228V607H490V606ZM167.5 545.5V407H166.5V545.5H167.5ZM106 345.5H64V346.5H106V345.5ZM3.5 285V64H2.5V285H3.5ZM64 345.5C30.5868 345.5 3.5 318.413 3.5 285H2.5C2.5 318.966 30.0345 346.5 64 346.5V345.5ZM167.5 407C167.5 373.034 139.966 345.5 106 345.5V346.5C139.413 346.5 166.5 373.587 166.5 407H167.5ZM228 606C194.587 606 167.5 578.913 167.5 545.5H166.5C166.5 579.466 194.034 607 228 607V606ZM545 661C545 630.624 520.376 606 490 606V607C519.823 607 544 631.177 544 661H545ZM599 715C569.177 715 545 690.823 545 661H544C544 691.376 568.624 716 599 716V715ZM950 654.5C950 687.913 922.913 715 889.5 715V716C923.466 716 951 688.466 951 654.5H950ZM1011.5 537C977.534 537 950 564.534 950 598.5H951C951 565.087 978.087 538 1011.5 538V537ZM1320.5 476.5C1320.5 509.913 1293.41 537 1260 537V538C1293.97 538 1321.5 510.466 1321.5 476.5H1320.5ZM1302.25 125.5C1312.33 125.5 1320.5 133.671 1320.5 143.75H1321.5C1321.5 133.119 1312.88 124.5 1302.25 124.5V125.5ZM1283 106.25C1283 116.881 1291.62 125.5 1302.25 125.5V124.5C1292.17 124.5 1284 116.329 1284 106.25H1283Z" fill="url(#paint0_linear_4159_13999)"/>
<defs>
<linearGradient id="paint0_linear_4159_13999" x1="623.25" y1="-112.5" x2="623.25" y2="715.5" gradientUnits="userSpaceOnUse">
<stop stop-color="white"/>
<stop offset="1" stop-color="#666666"/>
</linearGradient>
</defs>
</svg>
