<svg width="831" height="831" viewBox="0 0 831 831" fill="none" xmlns="http://www.w3.org/2000/svg">
<path d="M569.449 194.743H452.485C441.752 194.743 434.757 205.962 439.466 215.657L640.361 627.486C645.693 638.359 661.136 638.359 666.468 627.486L724.915 507.545C726.854 503.529 726.854 498.82 724.915 494.803L582.537 202.915C580.113 197.929 575.058 194.743 569.518 194.743H569.449Z" fill="#00224C" fill-opacity="0.05"/>
<path d="M342.786 194.743H225.823C215.089 194.743 208.095 205.962 212.804 215.657L413.698 627.486C419.031 638.359 434.473 638.359 439.806 627.486L498.253 507.545C500.192 503.529 500.192 498.82 498.253 494.803L355.875 202.915C353.451 197.929 348.396 194.743 342.856 194.743H342.786Z" fill="#00224C" fill-opacity="0.05"/>
<path d="M316.533 427.945H118.409C107.675 427.945 100.681 439.164 105.39 448.789L192.853 628.147C198.185 639.019 213.628 639.019 218.96 628.147L316.533 427.876V427.945Z" fill="#00224C" fill-opacity="0.05"/>
</svg>
