<svg width="46" height="32" viewBox="0 0 46 32" fill="none" xmlns="http://www.w3.org/2000/svg">
<path d="M34.1159 0.0615234H25.6709C24.8959 0.0615234 24.3909 0.871522 24.7309 1.57152L39.2359 31.3065C39.6209 32.0915 40.7359 32.0915 41.1209 31.3065L45.3409 22.6465C45.4809 22.3565 45.4809 22.0165 45.3409 21.7265L35.0609 0.651522C34.8859 0.291523 34.5209 0.0615234 34.1209 0.0615234H34.1159Z" fill="#00224C"/>
<path d="M17.7507 0.0615234H9.30566C8.53066 0.0615234 8.02566 0.871522 8.36566 1.57152L22.8707 31.3065C23.2557 32.0915 24.3707 32.0915 24.7557 31.3065L28.9757 22.6465C29.1157 22.3565 29.1157 22.0165 28.9757 21.7265L18.6957 0.651522C18.5207 0.291523 18.1557 0.0615234 17.7557 0.0615234H17.7507Z" fill="#00224C"/>
<path d="M15.8548 16.8976H1.5498C0.774798 16.8976 0.269798 17.7076 0.609798 18.4026L6.9248 31.3526C7.3098 32.1376 8.4248 32.1376 8.8098 31.3526L15.8548 16.8926V16.8976Z" fill="#00224C"/>
</svg>
