<svg width="41" height="41" viewBox="0 0 41 41" fill="none" xmlns="http://www.w3.org/2000/svg">
<path fill-rule="evenodd" clip-rule="evenodd" d="M20.1015 40.3222C31.1473 40.3222 40.1015 31.3679 40.1015 20.3222C40.1015 9.27656 31.1473 0.322266 20.1015 0.322266C9.05585 0.322266 0.101562 9.27656 0.101562 20.3222C0.101562 31.3679 9.05585 40.3222 20.1015 40.3222ZM23.1885 15.7748C24.8933 14.0699 24.8933 11.3058 23.1885 9.60092C21.4836 7.89604 18.7195 7.89604 17.0146 9.60092C15.3098 11.3058 15.3098 14.0699 17.0146 15.7748L20.1015 18.8617L23.1885 15.7748ZM24.649 23.4092C26.3539 25.1141 29.118 25.1141 30.8229 23.4092C32.5277 21.7043 32.5277 18.9402 30.8229 17.2353C29.118 15.5305 26.3539 15.5305 24.649 17.2353L21.5621 20.3223L24.649 23.4092ZM23.1885 31.0436C24.8933 29.3387 24.8933 26.5746 23.1885 24.8697L20.1015 21.7828L17.0146 24.8697C15.3098 26.5746 15.3098 29.3387 17.0146 31.0436C18.7195 32.7485 21.4836 32.7485 23.1885 31.0436ZM9.38019 23.4092C7.67535 21.7043 7.67535 18.9402 9.38019 17.2353C11.0851 15.5305 13.8492 15.5305 15.5541 17.2353L18.641 20.3223L15.5541 23.4092C13.8492 25.1141 11.0851 25.1141 9.38019 23.4092Z" fill="#7F57F1"/>
</svg>
