<svg width="41" height="41" viewBox="0 0 41 41" fill="none" xmlns="http://www.w3.org/2000/svg">
<path fill-rule="evenodd" clip-rule="evenodd" d="M20.6836 40.1386C31.7293 40.1386 40.6836 31.1843 40.6836 20.1386C40.6836 9.09298 31.7293 0.138672 20.6836 0.138672C9.63788 0.138672 0.683594 9.09298 0.683594 20.1386C0.683594 31.1843 9.63788 40.1386 20.6836 40.1386ZM26.9229 9.45551C27.2266 8.37672 26.1797 7.7388 25.2236 8.41997L11.8767 17.9282C10.8398 18.6669 11.0029 20.1386 12.1217 20.1386H15.6363V20.1114H22.4861L16.9048 22.0807L14.4443 30.8218C14.1406 31.9006 15.1874 32.5385 16.1436 31.8573L29.4905 22.3491C30.5274 21.6104 30.3642 20.1386 29.2455 20.1386H23.9157L26.9229 9.45551Z" fill="#F15757"/>
</svg>
