<svg width="42" height="42" viewBox="0 0 42 42" fill="none" xmlns="http://www.w3.org/2000/svg">
<path d="M33.25 0H8.75C3.91751 0 0 3.91751 0 8.75V33.25C0 38.0825 3.91751 42 8.75 42H33.25C38.0825 42 42 38.0825 42 33.25V8.75C42 3.91751 38.0825 0 33.25 0Z" fill="#AFCA1A"/>
<path d="M28.7807 9.8418H22.8692C22.3267 9.8418 21.9732 10.4088 22.2112 10.8988L32.3647 31.7133C32.6342 32.2628 33.4147 32.2628 33.6842 31.7133L36.6382 25.6513C36.7362 25.4483 36.7362 25.2103 36.6382 25.0073L29.4422 10.2548C29.3197 10.0028 29.0642 9.8418 28.7842 9.8418H28.7807Z" fill="#00224C"/>
<path d="M17.3247 9.8418H11.4132C10.8707 9.8418 10.5172 10.4088 10.7552 10.8988L20.9087 31.7133C21.1782 32.2628 21.9587 32.2628 22.2282 31.7133L25.1822 25.6513C25.2802 25.4483 25.2802 25.2103 25.1822 25.0073L17.9862 10.2548C17.8637 10.0028 17.6082 9.8418 17.3282 9.8418H17.3247Z" fill="#00224C"/>
<path d="M15.9985 21.6295H5.98496C5.44246 21.6295 5.08896 22.1965 5.32696 22.683L9.74746 31.748C10.017 32.2975 10.7975 32.2975 11.067 31.748L15.9985 21.626V21.6295Z" fill="#00224C"/>
<path d="M28.5293 10H22.6178C22.0753 10 21.7218 10.567 21.9598 11.057L32.1133 31.8715C32.3828 32.421 33.1633 32.421 33.4328 31.8715L36.3868 25.8095C36.4848 25.6065 36.4848 25.3685 36.3868 25.1655L29.1908 10.413C29.0683 10.161 28.8128 10 28.5328 10H28.5293Z" fill="#00224C"/>
<path d="M17.0732 10H11.1617C10.6192 10 10.2657 10.567 10.5037 11.057L20.6572 31.8715C20.9267 32.421 21.7072 32.421 21.9767 31.8715L24.9307 25.8095C25.0287 25.6065 25.0287 25.3685 24.9307 25.1655L17.7347 10.413C17.6122 10.161 17.3567 10 17.0767 10H17.0732Z" fill="#00224C"/>
<path d="M15.747 21.7877H5.73349C5.19099 21.7877 4.83749 22.3547 5.07549 22.8412L9.49599 31.9062C9.76549 32.4557 10.546 32.4557 10.8155 31.9062L15.747 21.7842V21.7877Z" fill="#00224C"/>
</svg>
