<svg width="800" height="1020" viewBox="0 0 800 1020" fill="none" xmlns="http://www.w3.org/2000/svg">
<rect width="800" height="1020" fill="#B8F156"/>
<path d="M695.315 209H535.698C521.05 209 511.505 224.31 517.931 237.54L792.087 799.554C799.364 814.391 820.438 814.391 827.715 799.554L907.476 635.874C910.122 630.392 910.122 623.966 907.476 618.485L713.176 220.151C709.869 213.347 702.97 209 695.409 209H695.315Z" fill="#0B1444"/>
<path d="M385.99 209.007H226.373C211.725 209.007 202.18 224.316 208.606 237.547L482.762 799.561C490.038 814.398 511.113 814.398 518.39 799.561L598.151 635.88C600.797 630.399 600.797 623.973 598.151 618.492L403.851 220.158C400.543 213.354 393.645 209.007 386.084 209.007H385.99Z" fill="#0B1444"/>
<path d="M350.18 527.286H79.8051C65.157 527.286 55.6121 542.596 62.0384 555.732L181.397 800.497C188.673 815.334 209.748 815.334 217.025 800.497L350.18 527.192V527.286Z" fill="#0B1444"/>
</svg>
