<svg width="595" height="842" viewBox="0 0 595 842" fill="none" xmlns="http://www.w3.org/2000/svg">
<g clip-path="url(#clip0_2997_91296)">
<rect width="595" height="842" fill="#C3E11D"/>
<g opacity="0.4">
<path d="M632.709 111H468.486C453.415 111 443.595 126.751 450.207 140.364L732.273 718.596C739.76 733.861 761.443 733.861 768.929 718.596L850.992 550.192C853.715 544.552 853.715 537.941 850.992 532.301L651.086 122.473C647.683 115.473 640.585 111 632.806 111H632.709Z" fill="white"/>
<path d="M314.32 111H150.097C135.027 111 125.206 126.751 131.818 140.364L413.885 718.596C421.371 733.861 443.054 733.861 450.541 718.596L532.604 550.192C535.326 544.552 535.326 537.941 532.604 532.301L332.697 122.473C329.294 115.473 322.196 111 314.417 111H314.32Z" fill="white"/>
<path d="M277.554 438.458H-0.623413C-15.6942 438.458 -25.5145 454.209 -18.9028 467.724L103.9 719.552C111.387 734.817 133.069 734.817 140.556 719.552L277.554 438.36V438.458Z" fill="white"/>
</g>
<rect x="28" y="16" width="68" height="68" rx="5" fill="#C3E11D"/>
<path d="M74.6023 31.9375H65.0313C64.153 31.9375 63.5806 32.8555 63.966 33.6488L80.405 67.3485C80.8413 68.2382 82.105 68.2382 82.5413 67.3485L87.324 57.5338C87.4826 57.2052 87.4826 56.8198 87.324 56.4912L75.6733 32.6062C75.475 32.1982 75.0613 31.9375 74.608 31.9375H74.6023Z" fill="#00224C"/>
<path d="M56.0398 31.9375H46.4688C45.5905 31.9375 45.0181 32.8555 45.4035 33.6488L61.8425 67.3485C62.2788 68.2382 63.5425 68.2382 63.9788 67.3485L68.7615 57.5338C68.9201 57.2052 68.9201 56.8198 68.7615 56.4912L57.1108 32.6062C56.9125 32.1982 56.4988 31.9375 56.0455 31.9375H56.0398Z" fill="#00224C"/>
<path d="M53.8999 51.0223H37.6876C36.8092 51.0223 36.2369 51.9403 36.6222 52.7279L43.7792 67.4046C44.2156 68.2943 45.4792 68.2943 45.9156 67.4046L53.8999 51.0166V51.0223Z" fill="#00224C"/>
</g>
<defs>
<clipPath id="clip0_2997_91296">
<rect width="595" height="842" fill="white"/>
</clipPath>
</defs>
</svg>
