<svg width="40" height="40" viewBox="0 0 40 40" fill="none" xmlns="http://www.w3.org/2000/svg">
<path d="M32.5 12.5002V35.0002C32.5 35.921 31.7542 36.6668 30.8333 36.6668H9.16667C8.24583 36.6668 7.5 35.921 7.5 35.0002V5.00016C7.5 4.07933 8.24583 3.3335 9.16667 3.3335H23.3333L32.5 12.5002Z" fill="url(#paint0_linear_284_45015)"/>
<path d="M23.333 3.3335V11.6668C23.333 12.1268 23.7063 12.5002 24.1663 12.5002H32.4997L23.333 3.3335Z" fill="#107C42"/>
<path opacity="0.05" d="M13.3337 27.5002C12.4145 27.5002 11.667 26.7527 11.667 25.8335V17.5002C11.667 16.581 12.4145 15.8335 13.3337 15.8335H26.667C27.5862 15.8335 28.3337 16.581 28.3337 17.5002V25.8335C28.3337 26.7527 27.5862 27.5002 26.667 27.5002H13.3337ZM25.0003 24.1668V23.3335H21.667V24.1668H25.0003ZM18.3337 24.1668V23.3335H15.0003V24.1668H18.3337ZM25.0003 20.0002V19.1668H21.667V20.0002H25.0003ZM18.3337 20.0002V19.1668H15.0003V20.0002H18.3337Z" fill="black"/>
<path opacity="0.07" d="M13.333 27.0833C12.6438 27.0833 12.083 26.5225 12.083 25.8333V17.5C12.083 16.8108 12.6438 16.25 13.333 16.25H26.6663C27.3555 16.25 27.9163 16.8108 27.9163 17.5V25.8333C27.9163 26.5225 27.3555 27.0833 26.6663 27.0833H13.333ZM25.4163 24.5833V22.9167H21.2497V24.5833H25.4163ZM18.7497 24.5833V22.9167H14.583V24.5833H18.7497ZM25.4163 20.4167V18.75H21.2497V20.4167H25.4163ZM18.7497 20.4167V18.75H14.583V20.4167H18.7497Z" fill="black"/>
<path d="M26.6667 16.6665H13.3333C12.8725 16.6665 12.5 17.0398 12.5 17.4998V25.8332C12.5 26.2932 12.8725 26.6665 13.3333 26.6665H26.6667C27.1275 26.6665 27.5 26.2932 27.5 25.8332V17.4998C27.5 17.0398 27.1275 16.6665 26.6667 16.6665ZM25.8333 20.8332H20.8333V18.3332H25.8333V20.8332ZM19.1667 18.3332V20.8332H14.1667V18.3332H19.1667ZM14.1667 22.4998H19.1667V24.9998H14.1667V22.4998ZM20.8333 24.9998V22.4998H25.8333V24.9998H20.8333Z" fill="white"/>
<defs>
<linearGradient id="paint0_linear_284_45015" x1="20" y1="10.7252" x2="20" y2="79.0327" gradientUnits="userSpaceOnUse">
<stop stop-color="#21AD64"/>
<stop offset="1" stop-color="#088242"/>
</linearGradient>
</defs>
</svg>
