<svg width="36" height="36" viewBox="0 0 36 36" fill="none" xmlns="http://www.w3.org/2000/svg">
<rect width="36" height="36" rx="8" fill="#C3E11D"/>
<path d="M24.6684 8.43701H19.6014C19.1364 8.43701 18.8334 8.92301 19.0374 9.34301L27.7404 27.184C27.9714 27.655 28.6404 27.655 28.8714 27.184L31.4034 21.988C31.4874 21.814 31.4874 21.61 31.4034 21.436L25.2354 8.79101C25.1304 8.57501 24.9114 8.43701 24.6714 8.43701H24.6684Z" fill="#00224C"/>
<path d="M14.848 8.43701H9.78105C9.31605 8.43701 9.01305 8.92301 9.21705 9.34301L17.92 27.184C18.151 27.655 18.82 27.655 19.051 27.184L21.583 21.988C21.667 21.814 21.667 21.61 21.583 21.436L15.415 8.79101C15.31 8.57501 15.091 8.43701 14.851 8.43701H14.848Z" fill="#00224C"/>
<path d="M13.7117 18.5401H5.12871C4.66371 18.5401 4.36071 19.0261 4.56471 19.4431L8.35371 27.2131C8.58471 27.6841 9.25371 27.6841 9.48471 27.2131L13.7117 18.5371V18.5401Z" fill="#00224C"/>
</svg>
