<svg width="188" height="42" viewBox="0 0 188 42" fill="none" xmlns="http://www.w3.org/2000/svg">
<g clip-path="url(#clip0_744_3557)">
<path d="M33.25 0H8.75C3.91751 0 0 3.91751 0 8.75V33.25C0 38.0825 3.91751 42 8.75 42H33.25C38.0825 42 42 38.0825 42 33.25V8.75C42 3.91751 38.0825 0 33.25 0Z" fill="#AFCA1A"/>
<path d="M28.7807 9.8418H22.8692C22.3267 9.8418 21.9732 10.4088 22.2112 10.8988L32.3647 31.7133C32.6342 32.2628 33.4147 32.2628 33.6842 31.7133L36.6382 25.6513C36.7362 25.4483 36.7362 25.2103 36.6382 25.0073L29.4422 10.2548C29.3197 10.0028 29.0642 9.8418 28.7842 9.8418H28.7807Z" fill="#00224C"/>
<path d="M17.3247 9.8418H11.4132C10.8707 9.8418 10.5172 10.4088 10.7552 10.8988L20.9087 31.7133C21.1782 32.2628 21.9587 32.2628 22.2282 31.7133L25.1822 25.6513C25.2802 25.4483 25.2802 25.2103 25.1822 25.0073L17.9862 10.2548C17.8637 10.0028 17.6082 9.8418 17.3282 9.8418H17.3247Z" fill="#00224C"/>
<path d="M15.9985 21.6295H5.98496C5.44246 21.6295 5.08896 22.1965 5.32696 22.683L9.74746 31.748C10.017 32.2975 10.7975 32.2975 11.067 31.748L15.9985 21.626V21.6295Z" fill="#00224C"/>
<path d="M28.5293 10H22.6178C22.0753 10 21.7218 10.567 21.9598 11.057L32.1133 31.8715C32.3828 32.421 33.1633 32.421 33.4328 31.8715L36.3868 25.8095C36.4848 25.6065 36.4848 25.3685 36.3868 25.1655L29.1908 10.413C29.0683 10.161 28.8128 10 28.5328 10H28.5293Z" fill="#00224C"/>
<path d="M17.0732 10H11.1617C10.6192 10 10.2657 10.567 10.5037 11.057L20.6572 31.8715C20.9267 32.421 21.7072 32.421 21.9767 31.8715L24.9307 25.8095C25.0287 25.6065 25.0287 25.3685 24.9307 25.1655L17.7347 10.413C17.6122 10.161 17.3567 10 17.0767 10H17.0732Z" fill="#00224C"/>
<path d="M15.747 21.7877H5.73349C5.19099 21.7877 4.83749 22.3547 5.07549 22.8412L9.49599 31.9062C9.76549 32.4557 10.546 32.4557 10.8155 31.9062L15.747 21.7842V21.7877Z" fill="#00224C"/>
<path d="M61.9786 38.731H59.062V31.9214H61.4438C62.6689 31.9214 63.4836 32.6863 63.4836 33.7373C63.4836 34.2659 63.2846 34.695 62.9177 35.0184C63.7137 35.2733 64.1863 35.9139 64.1863 36.7534C64.1863 37.8977 63.3095 38.731 61.9786 38.731ZM60.1316 32.8853V34.7199H61.3381C62.0097 34.7199 62.3891 34.3592 62.3891 33.7932C62.3891 33.2273 62.0097 32.8853 61.3381 32.8853H60.1316ZM61.8853 35.6589H60.1316V37.7733H61.8853C62.6378 37.7733 63.0794 37.3691 63.0794 36.7223C63.0794 36.0756 62.6378 35.6589 61.8853 35.6589Z" fill="#54638C"/>
<path d="M69.6584 33.6621L67.1958 39.3026C66.7729 40.2603 66.207 40.6956 65.3426 40.6956C65.0627 40.6956 64.7829 40.6645 64.5093 40.5899V39.6695C64.8264 39.7006 65.0254 39.713 65.1063 39.713C65.61 39.713 65.9645 39.5389 66.207 38.973L66.4122 38.5003L64.3911 33.6621H65.554L67.0092 37.3436L68.5017 33.6621H69.6584Z" fill="#54638C"/>
<path d="M73.2534 31.9277H74.3417V38.7062H73.2534V31.9277Z" fill="#54638C"/>
<path d="M79.9078 38.7062H78.8319V35.6963C78.8319 34.9998 78.3904 34.5271 77.7312 34.5271C77.072 34.5271 76.5807 35.0122 76.5807 35.6963V38.7062H75.5049V33.6627H76.5123V34.154C76.8917 33.756 77.3954 33.5508 78.0235 33.5508C79.2051 33.5508 79.914 34.353 79.914 35.5532V38.7062H79.9078Z" fill="#54638C"/>
<path d="M85.4737 38.7062H84.3979V35.6963C84.3979 34.9998 83.9563 34.5271 83.2971 34.5271C82.6379 34.5271 82.1467 35.0122 82.1467 35.6963V38.7062H81.0708V33.6627H82.0782V34.154C82.4576 33.756 82.9613 33.5508 83.5894 33.5508C84.771 33.5508 85.4799 34.353 85.4799 35.5532V38.7062H85.4737Z" fill="#54638C"/>
<path d="M88.8624 33.5509C90.3301 33.5198 91.5738 34.7511 91.5427 36.1814C91.5738 37.6118 90.3301 38.8493 88.8624 38.8182C87.4134 38.8493 86.1697 37.6055 86.2008 36.1814C86.1697 34.7324 87.4134 33.5322 88.8624 33.5509ZM88.8749 34.5397C87.9793 34.5397 87.3015 35.261 87.3015 36.1939C87.3015 37.1267 87.9793 37.8294 88.8624 37.8294C89.7455 37.8294 90.4358 37.108 90.4358 36.1939C90.4358 35.2797 89.7455 34.5397 88.8749 34.5397Z" fill="#54638C"/>
<path d="M96.8474 33.6689L94.4159 38.8243H94.049L91.605 33.6689H92.7555L94.2355 37.0084L95.7032 33.6689H96.8537H96.8474Z" fill="#54638C"/>
<path d="M102.171 33.6691V38.7125H101.126V38.0658C100.746 38.5508 100.112 38.8245 99.4032 38.8245C98.004 38.8431 96.9095 37.6615 96.9406 36.1939C96.9406 34.6952 97.9853 33.5571 99.4032 33.5571C100.156 33.5571 100.802 33.8681 101.169 34.3904V33.6691H102.177H102.171ZM99.5836 34.5397C98.7192 34.5397 98.0351 35.2362 98.0351 36.1939C98.0351 37.1516 98.7254 37.8357 99.5836 37.8357C100.367 37.8357 101.101 37.2946 101.101 36.1939C101.101 35.0932 100.361 34.5397 99.5836 34.5397Z" fill="#54638C"/>
<path d="M103.147 33.6691V31.9341H104.235V33.6691H105.734V34.602H104.235V36.9713C104.235 37.6181 104.571 37.842 105.23 37.842C105.386 37.842 105.597 37.8233 105.896 37.7922V38.7064C105.554 38.781 105.261 38.8183 105 38.8183C103.837 38.8183 103.141 38.2462 103.141 37.0646V33.6629L103.147 33.6691Z" fill="#54638C"/>
<path d="M107.177 31.4424C107.575 31.4424 107.905 31.7595 107.905 32.1638C107.905 32.568 107.575 32.8727 107.177 32.8727C106.779 32.8727 106.437 32.5618 106.437 32.1638C106.437 31.7658 106.767 31.4424 107.177 31.4424Z" fill="#54638C"/>
<path d="M107.706 33.6689H106.63V38.7124H107.706V33.6689Z" fill="#54638C"/>
<path d="M111.3 33.5509C112.768 33.5198 114.011 34.7511 113.98 36.1814C114.011 37.6118 112.768 38.8493 111.3 38.8182C109.851 38.8493 108.607 37.6055 108.638 36.1814C108.607 34.7324 109.851 33.5322 111.3 33.5509ZM111.312 34.5397C110.417 34.5397 109.739 35.261 109.739 36.1939C109.739 37.1267 110.417 37.8294 111.3 37.8294C112.183 37.8294 112.873 37.108 112.873 36.1939C112.873 35.2797 112.183 34.5397 111.312 34.5397Z" fill="#54638C"/>
<path d="M119.335 38.7062H118.259V35.6963C118.259 34.9998 117.817 34.5271 117.158 34.5271C116.499 34.5271 116.007 35.0122 116.007 35.6963V38.7062H114.932V33.6627H115.939V34.154C116.318 33.756 116.822 33.5508 117.45 33.5508C118.632 33.5508 119.341 34.353 119.341 35.5532V38.7062H119.335Z" fill="#54638C"/>
<path d="M129.658 31.9274L127.021 38.8178H126.66L124.639 34.0107L122.618 38.8178H122.251L119.614 31.9274H120.814L122.512 36.5106L124.452 31.8154H124.832L126.785 36.5106L128.476 31.9274H129.67H129.658Z" fill="#54638C"/>
<path d="M131.909 33.5509C133.376 33.5198 134.62 34.7511 134.589 36.1814C134.62 37.6118 133.376 38.8493 131.909 38.8182C130.46 38.8493 129.216 37.6055 129.247 36.1814C129.216 34.7324 130.46 33.5322 131.909 33.5509ZM131.921 34.5397C131.026 34.5397 130.348 35.261 130.348 36.1939C130.348 37.1267 131.026 37.8294 131.909 37.8294C132.792 37.8294 133.482 37.108 133.482 36.1939C133.482 35.2797 132.792 34.5397 131.921 34.5397Z" fill="#54638C"/>
<path d="M138.426 34.6204H138.096C137.244 34.6204 136.616 35.1241 136.616 36.0196V38.7123H135.541V33.6689H136.548V34.3281C136.909 33.8741 137.443 33.6191 138.016 33.6191C138.171 33.6191 138.302 33.6378 138.426 33.6689V34.6266V34.6204Z" fill="#54638C"/>
<path d="M143.644 38.7062H142.351L140.162 35.8705L142.133 33.6628H143.47L141.437 35.8829L143.644 38.7062ZM139.055 31.9277H140.131V38.7062H139.055V31.9277Z" fill="#54638C"/>
<path d="M144.552 37.1701C144.987 37.6303 145.422 37.8915 145.951 37.8915C146.405 37.8915 146.753 37.6987 146.753 37.3256C146.753 37.0271 146.542 36.9027 146.05 36.6975L145.54 36.4798C144.657 36.1067 144.241 35.7211 144.241 35.0122C144.241 34.1105 144.981 33.5508 145.994 33.5508C146.716 33.5508 147.282 33.8058 147.717 34.3344L147.139 34.9998C146.822 34.6702 146.411 34.4836 145.97 34.4836C145.528 34.4836 145.292 34.6453 145.292 34.9687C145.292 35.2236 145.466 35.3605 145.951 35.5657L146.43 35.7585C147.375 36.1565 147.792 36.5669 147.792 37.2758C147.792 37.7609 147.618 38.1403 147.263 38.4139C146.909 38.6813 146.473 38.8119 145.945 38.8119C145.093 38.8119 144.384 38.4201 143.936 37.8355L144.545 37.1577L144.552 37.1701Z" fill="#54638C"/>
<path d="M149.813 31.9277H148.495C148.377 31.9277 148.296 32.0521 148.346 32.164L150.609 36.8033C150.671 36.9277 150.845 36.9277 150.901 36.8033L151.561 35.4538C151.586 35.4103 151.586 35.3543 151.561 35.3108L149.956 32.0272C149.931 31.9713 149.869 31.934 149.807 31.934L149.813 31.9277Z" fill="#54638C"/>
<path d="M155.516 31.9277H153.283L152.002 34.5583L153.103 36.8157C153.165 36.9401 153.339 36.9401 153.395 36.8157L155.665 32.164C155.721 32.0583 155.64 31.9277 155.516 31.9277Z" fill="#54638C"/>
<path d="M150.839 32.1577L152.008 34.5519L153.289 31.9214H150.988C150.87 31.9214 150.789 32.0458 150.839 32.1577Z" fill="#54638C"/>
<path d="M65.7101 22.4128C64.0186 22.4128 62.582 21.9775 61.4004 21.1131C60.2189 20.2487 59.3171 19.036 58.689 17.4689C58.0609 15.9017 57.75 14.0796 57.75 12.0087C57.75 9.93787 58.0609 8.08467 58.689 6.51753C59.3109 4.95039 60.2189 3.7315 61.4129 2.85465C62.6007 1.9778 64.0372 1.54248 65.7039 1.54248C67.8742 1.54248 69.6031 2.13327 70.8903 3.31484C72.1776 4.49642 72.9239 6.09465 73.1416 8.11576H69.771C69.5968 7.05856 69.174 6.18171 68.4899 5.47899C67.8058 4.77626 66.873 4.42801 65.679 4.42801C64.1616 4.42801 62.98 5.09964 62.1343 6.4429C61.2885 7.78617 60.8656 9.63937 60.8656 12.0087C60.8656 14.3781 61.2885 16.194 62.1343 17.531C62.98 18.8681 64.1616 19.5335 65.679 19.5335C66.9103 19.5335 67.8493 19.2101 68.5023 18.5696C69.1553 17.9228 69.5782 17.0771 69.771 16.0199H73.1416C72.8306 17.9975 72.0533 19.5584 70.8095 20.7026C69.5595 21.8469 67.8618 22.419 65.7039 22.419L65.7101 22.4128Z" fill="#00224C"/>
<path d="M75.8281 22.0647V1.3125H78.8816V9.90068C79.2671 9.19173 79.8828 8.60094 80.7286 8.12831C81.5743 7.65568 82.5258 7.41937 83.583 7.41937C85.3491 7.41937 86.6924 7.95419 87.619 9.0176C88.5394 10.0872 88.9996 11.6171 88.9996 13.6133V22.0584H85.9461V14.0424C85.9461 12.8546 85.6601 11.928 85.0817 11.275C84.5034 10.6221 83.7074 10.2925 82.6875 10.2925C81.6676 10.2925 80.7348 10.6469 79.9947 11.3621C79.2547 12.071 78.8878 13.1034 78.8878 14.4466V22.0584H75.8343L75.8281 22.0647Z" fill="#00224C"/>
<path d="M97.9233 22.4131C96.7915 22.4131 95.84 22.2141 95.0689 21.8223C94.2978 21.4305 93.7256 20.9019 93.3401 20.2365C92.9545 19.5773 92.7617 18.8497 92.7617 18.0599C92.7617 16.6545 93.2779 15.56 94.304 14.7764C95.3301 13.9866 96.7853 13.5948 98.6696 13.5948H102.357V13.2777C102.357 11.126 101.356 10.0501 99.3599 10.0501C98.5328 10.0501 97.8363 10.2305 97.2704 10.5849C96.7044 10.9394 96.3251 11.5115 96.1323 12.3013H93.0789C93.2343 10.8026 93.8811 9.6148 95.0254 8.73795C96.1696 7.86732 97.6186 7.42578 99.3661 7.42578C101.48 7.42578 103.017 7.94194 103.98 8.98048C104.944 10.019 105.423 11.4494 105.423 13.2777V22.0711H102.83L102.569 19.9691H102.37C101.947 20.6408 101.418 21.2191 100.784 21.6979C100.15 22.1768 99.1982 22.4193 97.9295 22.4193L97.9233 22.4131ZM98.5017 19.8447C99.7517 19.8447 100.684 19.4654 101.313 18.7067C101.934 17.948 102.276 16.9841 102.339 15.8087H98.993C97.8984 15.8087 97.1211 15.9891 96.6733 16.3436C96.2194 16.698 95.9955 17.1955 95.9955 17.8299C95.9955 18.4642 96.2194 18.9617 96.6733 19.3161C97.1273 19.6706 97.7368 19.851 98.5017 19.851V19.8447Z" fill="#00224C"/>
<path d="M109.758 22.0642V7.7672H112.407L112.668 9.90025H112.811C113.197 9.20996 113.794 8.62539 114.596 8.14033C115.404 7.66148 116.337 7.41895 117.395 7.41895C119.142 7.41895 120.46 7.94754 121.343 9.00474C122.227 10.0619 122.668 11.6166 122.668 13.6751V22.0642H119.615V14.0482C119.615 12.8604 119.366 11.9338 118.862 11.2808C118.365 10.6279 117.575 10.2983 116.499 10.2983C115.423 10.2983 114.565 10.6527 113.862 11.3679C113.159 12.0768 112.811 13.1092 112.811 14.4524V22.0642H109.758Z" fill="#00224C"/>
<path d="M132.656 17.9474C131.773 17.9474 130.958 17.8044 130.205 17.5121L129.484 18.3765C129.254 18.6626 129.192 18.9362 129.297 19.1974C129.403 19.4586 129.658 19.5829 130.062 19.5829H133.837C135.51 19.5829 136.86 19.9312 137.886 20.6339C138.912 21.3366 139.428 22.4063 139.428 23.849C139.428 24.7508 139.204 25.5716 138.75 26.3117C138.296 27.0517 137.581 27.6425 136.586 28.084C135.591 28.5256 134.297 28.7495 132.68 28.7495C130.641 28.7495 129.005 28.3701 127.768 27.6114C126.53 26.8527 125.908 25.7147 125.908 24.1973C125.908 23.6563 126.039 23.165 126.294 22.711C126.555 22.257 126.897 21.8528 127.32 21.4859C126.804 21.1003 126.487 20.5593 126.381 19.8566C126.275 19.1538 126.48 18.476 127.003 17.823L128.271 16.2061C127.37 15.2422 126.916 14.0669 126.916 12.6614C126.916 11.7224 127.14 10.8517 127.593 10.0557C128.047 9.25971 128.694 8.61918 129.552 8.14033C130.404 7.66148 131.437 7.41895 132.649 7.41895C133.433 7.41895 134.167 7.5371 134.838 7.76098H140.23V9.77587L137.724 9.91891V10.1801C138.128 10.9326 138.327 11.7535 138.327 12.6614C138.327 13.5693 138.103 14.4773 137.649 15.2857C137.195 16.0942 136.549 16.7347 135.703 17.2198C134.857 17.6986 133.837 17.9412 132.649 17.9412L132.656 17.9474ZM128.794 23.9734C128.794 24.7445 129.161 25.3105 129.901 25.6712C130.641 26.0381 131.567 26.2184 132.68 26.2184C133.868 26.2184 134.814 26.0194 135.504 25.6152C136.194 25.211 136.542 24.645 136.542 23.9174C136.542 23.3018 136.294 22.8167 135.79 22.4622C135.286 22.1078 134.447 21.9274 133.253 21.9274H129.882C129.154 22.5058 128.788 23.1836 128.788 23.9734H128.794ZM132.656 15.4972C133.501 15.4972 134.198 15.2484 134.745 14.7509C135.292 14.2534 135.566 13.5569 135.566 12.6738C135.566 11.7908 135.292 11.1564 134.745 10.6589C134.198 10.1614 133.501 9.90647 132.656 9.90647C131.81 9.90647 131.082 10.1552 130.535 10.6589C129.988 11.1564 129.714 11.8281 129.714 12.6738C129.714 13.5196 129.988 14.2472 130.535 14.7509C131.082 15.2484 131.791 15.4972 132.656 15.4972Z" fill="#00224C"/>
<path d="M149.533 22.4125C148.153 22.4125 146.928 22.1016 145.871 21.4735C144.813 20.8454 143.986 19.9809 143.396 18.8678C142.799 17.7546 142.5 16.4549 142.5 14.9748C142.5 13.4947 142.792 12.1577 143.377 11.0259C143.961 9.89403 144.789 9.01096 145.858 8.37042C146.922 7.7361 148.159 7.41895 149.558 7.41895C150.958 7.41895 152.133 7.72988 153.134 8.35798C154.129 8.97987 154.907 9.81319 155.454 10.8517C156.001 11.8903 156.275 13.0345 156.275 14.2845V14.9064C156.275 15.1303 156.262 15.3728 156.244 15.6402H145.491C145.585 16.9648 146.02 17.9723 146.785 18.6501C147.556 19.3342 148.458 19.6762 149.496 19.6762C150.398 19.6762 151.113 19.4897 151.642 19.1165C152.17 18.7434 152.556 18.2272 152.811 17.5743H155.895C155.547 18.9362 154.832 20.0867 153.731 21.0195C152.637 21.9523 151.231 22.4187 149.521 22.4187L149.533 22.4125ZM149.533 10.0744C148.594 10.0744 147.755 10.3604 147.027 10.9264C146.3 11.4923 145.827 12.2883 145.616 13.3082H153.227C153.153 12.3442 152.773 11.5669 152.102 10.9761C151.43 10.3853 150.572 10.0806 149.533 10.0806V10.0744Z" fill="#00224C"/>
<path d="M157.823 22.0644L163.849 1.89062H167.481L173.507 22.0644H170.192L168.837 17.22H162.494L161.138 22.0644H157.823ZM165.578 6.2127L163.184 14.776H168.14L165.746 6.2127H165.572H165.578Z" fill="#00224C"/>
<path d="M175.746 22.0643V19.3529H180.124V4.59568H175.802V1.88428H187.505V4.59568H183.183V19.3529H187.561V22.0643H175.746Z" fill="#00224C"/>
</g>
<defs>
<clipPath id="clip0_744_3557">
<rect width="188" height="42" fill="white"/>
</clipPath>
</defs>
</svg>
