<svg width="40" height="40" viewBox="0 0 40 40" fill="none" xmlns="http://www.w3.org/2000/svg">
<path d="M30.1249 2.58984L37.0799 9.83984V37.4098H11.0986V37.4998H37.1686V9.93109L30.1249 2.58984Z" fill="#909090"/>
<path d="M30.0385 2.5H11.0098V37.41H37.0798V9.84125L30.0373 2.5" fill="#F4F4F4"/>
<path d="M10.8186 4.375H2.83105V12.9087H27.9561V4.375H10.8186Z" fill="#7A7B7C"/>
<path d="M28.0904 12.7636H2.99414V4.22363H28.0904V12.7636Z" fill="#DD2025"/>
<path d="M11.3154 5.66736H9.68164V11.6674H10.9666V9.64361L11.2504 9.65986C11.5261 9.65512 11.7992 9.60573 12.0591 9.51361C12.287 9.43524 12.4967 9.3115 12.6754 9.14986C12.8573 8.99589 13.0007 8.80156 13.0941 8.58236C13.2195 8.21799 13.2643 7.83074 13.2254 7.44736C13.2176 7.1735 13.1696 6.90227 13.0829 6.64236C13.004 6.45475 12.8869 6.28561 12.739 6.14573C12.5912 6.00585 12.4158 5.89828 12.2241 5.82986C12.0584 5.76986 11.8872 5.72632 11.7129 5.69986C11.5809 5.6795 11.4477 5.66864 11.3141 5.66736M11.0779 8.53486H10.9666V6.68486H11.2079C11.3144 6.67719 11.4212 6.69353 11.5205 6.73269C11.6198 6.77185 11.7091 6.83283 11.7816 6.91111C11.932 7.11238 12.0124 7.35737 12.0104 7.60861C12.0104 7.91611 12.0104 8.19486 11.7329 8.39111C11.533 8.50107 11.3054 8.55058 11.0779 8.53361M15.6666 5.65111C15.5279 5.65111 15.3929 5.66111 15.2979 5.66486L15.0004 5.67236H14.0254V11.6724H15.1729C15.6114 11.6844 16.048 11.6101 16.4579 11.4536C16.7878 11.3228 17.0799 11.1118 17.3079 10.8399C17.5296 10.5654 17.6887 10.2459 17.7741 9.90361C17.8723 9.51595 17.9202 9.11726 17.9166 8.71736C17.9409 8.24506 17.9043 7.7716 17.8079 7.30861C17.7164 6.96782 17.545 6.65373 17.3079 6.39236C17.1219 6.18132 16.8942 6.01108 16.6391 5.89236C16.4201 5.79101 16.1897 5.71631 15.9529 5.66986C15.8587 5.65431 15.7633 5.6472 15.6679 5.64861M15.4404 10.5699H15.3154V6.73986H15.3316C15.5893 6.71021 15.8501 6.75671 16.0816 6.87361C16.2512 7.00902 16.3894 7.17961 16.4866 7.37361C16.5916 7.57778 16.6521 7.80187 16.6641 8.03111C16.6754 8.30611 16.6641 8.53111 16.6641 8.71736C16.6692 8.93191 16.6554 9.14649 16.6229 9.35861C16.5844 9.5764 16.5131 9.78711 16.4116 9.98361C16.2968 10.1663 16.1415 10.3202 15.9579 10.4336C15.8037 10.5334 15.621 10.5799 15.4379 10.5661M21.7879 5.67236H18.7504V11.6724H20.0354V9.29236H21.6604V8.17736H20.0354V6.78736H21.7854V5.67236" fill="#464648"/>
<path d="M27.2268 25.3189C27.2268 25.3189 31.2118 24.5964 31.2118 25.9576C31.2118 27.3189 28.7431 26.7651 27.2268 25.3189ZM24.2806 25.4226C23.6475 25.5625 23.0304 25.7674 22.4393 26.0339L22.9393 24.9089C23.4393 23.7839 23.9581 22.2501 23.9581 22.2501C24.5547 23.2543 25.2489 24.1972 26.0306 25.0651C25.4411 25.153 24.8569 25.2732 24.2806 25.4251V25.4226ZM22.7031 17.2976C22.7031 16.1114 23.0868 15.7876 23.3856 15.7876C23.6843 15.7876 24.0206 15.9314 24.0318 16.9614C23.9345 17.9971 23.7176 19.018 23.3856 20.0039C22.9307 19.1762 22.6953 18.2458 22.7018 17.3014L22.7031 17.2976ZM16.8918 30.4426C15.6693 29.7114 19.4556 27.4601 20.1418 27.3876C20.1381 27.3889 18.1718 31.2076 16.8918 30.4426ZM32.3756 26.1189C32.3631 25.9939 32.2506 24.6101 29.7881 24.6689C28.7617 24.6523 27.7358 24.7247 26.7218 24.8851C25.7397 23.8956 24.8939 22.7795 24.2068 21.5664C24.6397 20.3157 24.9016 19.0122 24.9856 17.6914C24.9493 16.1914 24.5906 15.3314 23.4406 15.3439C22.2906 15.3564 22.1231 16.3626 22.2743 17.8601C22.4225 18.8664 22.702 19.849 23.1056 20.7826C23.1056 20.7826 22.5743 22.4364 21.8718 24.0814C21.1693 25.7264 20.6893 26.5889 20.6893 26.5889C19.4678 26.9866 18.3178 27.5774 17.2831 28.3389C16.2531 29.2976 15.8343 30.0339 16.3768 30.7701C16.8443 31.4051 18.4806 31.5489 19.9431 29.6326C20.7202 28.6429 21.4301 27.6022 22.0681 26.5176C22.0681 26.5176 24.2981 25.9064 24.9918 25.7389C25.6856 25.5714 26.5243 25.4389 26.5243 25.4389C26.5243 25.4389 28.5606 27.4876 30.5243 27.4151C32.4881 27.3426 32.3931 26.2414 32.3806 26.1214" fill="#DD2025"/>
<path d="M29.9424 2.59619V9.93744H36.9836L29.9424 2.59619Z" fill="#909090"/>
<path d="M30.0391 2.5V9.84125H37.0803L30.0391 2.5Z" fill="#F4F4F4"/>
<path d="M11.2187 5.57117H9.58496V11.5712H10.875V9.54867L11.16 9.56492C11.4357 9.56018 11.7088 9.51079 11.9687 9.41867C12.1966 9.34026 12.4062 9.21653 12.585 9.05492C12.7655 8.90053 12.9076 8.70624 13 8.48742C13.1253 8.12305 13.1701 7.7358 13.1312 7.35242C13.1234 7.07856 13.0754 6.80733 12.9887 6.54742C12.9098 6.35981 12.7927 6.19067 12.6449 6.05079C12.497 5.91091 12.3217 5.80333 12.13 5.73492C11.9635 5.67434 11.7914 5.63037 11.6162 5.60367C11.4842 5.58331 11.351 5.57245 11.2175 5.57117M10.9812 8.43867H10.87V6.58867H11.1125C11.2189 6.58099 11.3258 6.59734 11.4251 6.6365C11.5244 6.67566 11.6136 6.73664 11.6862 6.81492C11.8366 7.01619 11.917 7.26118 11.915 7.51242C11.915 7.81992 11.915 8.09867 11.6375 8.29492C11.4375 8.40488 11.21 8.45438 10.9825 8.43742M15.57 5.55492C15.4312 5.55492 15.2962 5.56492 15.2012 5.56867L14.9075 5.57617H13.9325V11.5762H15.08C15.5185 11.5882 15.9551 11.5139 16.365 11.3574C16.6949 11.2266 16.987 11.0156 17.215 10.7437C17.4367 10.4692 17.5958 10.1497 17.6812 9.80742C17.7794 9.41976 17.8273 9.02107 17.8237 8.62117C17.848 8.14887 17.8114 7.67541 17.715 7.21242C17.6234 6.87163 17.452 6.55754 17.215 6.29617C17.029 6.08513 16.8013 5.91489 16.5462 5.79617C16.3272 5.69482 16.0968 5.62012 15.86 5.57367C15.7658 5.55812 15.6704 5.551 15.575 5.55242M15.3475 10.4737H15.2225V6.64367H15.2387C15.4964 6.61402 15.7571 6.66052 15.9887 6.77742C16.1583 6.91283 16.2965 7.08342 16.3937 7.27742C16.4987 7.48159 16.5592 7.70568 16.5712 7.93492C16.5825 8.20992 16.5712 8.43492 16.5712 8.62117C16.5763 8.83572 16.5625 9.0503 16.53 9.26242C16.4914 9.48021 16.4202 9.69092 16.3187 9.88742C16.2038 10.0701 16.0486 10.2241 15.865 10.3374C15.7107 10.4372 15.5281 10.4837 15.345 10.4699M21.6912 5.57617H18.6537V11.5762H19.9387V9.19617H21.5637V8.08117H19.9387V6.69117H21.6887V5.57617" fill="white"/>
</svg>
