<svg width="17" height="18" viewBox="0 0 17 18" fill="none" xmlns="http://www.w3.org/2000/svg">
<path d="M1.01845 7.54716C0.327182 7.423 0.327182 6.41574 1.01845 6.29358C2.24242 6.07698 3.37523 5.49467 4.27246 4.62089C5.16968 3.74711 5.79067 2.62145 6.05627 1.38741L6.09762 1.19116C6.2473 0.496287 7.2202 0.490279 7.37579 1.18515L7.42699 1.41144C7.70256 2.64001 8.32911 3.75835 9.2279 4.62592C10.1267 5.4935 11.2576 6.0716 12.4786 6.28758C13.1738 6.40973 13.1738 7.42501 12.4786 7.54916C11.258 7.7655 10.1275 8.34376 9.22907 9.21131C8.33065 10.0789 7.70439 11.197 7.42896 12.4253L7.37776 12.6496C7.22217 13.3425 6.24927 13.3384 6.09959 12.6436L6.0602 12.4513C5.79435 11.2167 5.17277 10.0907 4.27479 9.21686C3.3768 8.34302 2.24314 7.76304 1.01845 7.54716Z" fill="#964DFF"/>
<path d="M10.1342 14.5241C9.78859 14.462 9.78859 13.9584 10.1342 13.8973C10.7462 13.789 11.3126 13.4978 11.7612 13.0609C12.2098 12.624 12.5203 12.0612 12.6531 11.4442L12.6738 11.3461C12.7487 10.9986 13.2351 10.9956 13.3129 11.3431L13.3385 11.4562C13.4763 12.0705 13.7896 12.6297 14.239 13.0635C14.6883 13.4972 15.2538 13.7863 15.8643 13.8943C16.2119 13.9554 16.2119 14.463 15.8643 14.5251C15.254 14.6332 14.6887 14.9224 14.2395 15.3561C13.7903 15.7899 13.4772 16.349 13.3395 16.9631L13.3139 17.0753C13.2361 17.4217 12.7496 17.4197 12.6748 17.0723L12.6551 16.9762C12.5222 16.3589 12.2114 15.7958 11.7624 15.3589C11.3134 14.922 10.7466 14.632 10.1342 14.5241Z" fill="#FC5D4A"/>
</svg>
